<svg width="80" height="38" viewBox="0 0 80 38" fill="none" xmlns="http://www.w3.org/2000/svg">
<path d="M11.2238 15.17C10.4985 15.17 9.82418 15.068 9.20085 14.864C8.58885 14.6487 8.05618 14.3483 7.60285 13.963C7.14951 13.5777 6.80385 13.13 6.56585 12.62C6.47518 12.4387 6.46951 12.2743 6.54885 12.127C6.63951 11.9683 6.78685 11.8607 6.99085 11.804C7.14951 11.7587 7.30251 11.7757 7.44985 11.855C7.60851 11.9343 7.72751 12.0533 7.80685 12.212C7.97685 12.5407 8.22618 12.8353 8.55485 13.096C8.88351 13.3567 9.27451 13.5607 9.72785 13.708C10.1812 13.844 10.6798 13.912 11.2238 13.912C11.8245 13.912 12.3572 13.8157 12.8218 13.623C13.2865 13.419 13.6492 13.13 13.9098 12.756C14.1818 12.3707 14.3178 11.906 14.3178 11.362C14.3178 10.6707 14.0628 10.0757 13.5528 9.577C13.0428 9.07833 12.2438 8.761 11.1558 8.625C9.82985 8.46633 8.79285 8.05833 8.04485 7.401C7.29685 6.73233 6.92285 5.91633 6.92285 4.953C6.92285 4.26167 7.10418 3.661 7.46685 3.151C7.84085 2.641 8.35085 2.25 8.99685 1.978C9.64285 1.69467 10.3852 1.553 11.2238 1.553C11.8472 1.553 12.4138 1.655 12.9238 1.859C13.4338 2.05167 13.8758 2.31233 14.2498 2.641C14.6352 2.95833 14.9468 3.30967 15.1848 3.695C15.2982 3.87633 15.3322 4.052 15.2868 4.222C15.2528 4.392 15.1565 4.52233 14.9978 4.613C14.8278 4.69233 14.6522 4.70367 14.4708 4.647C14.3008 4.59033 14.1705 4.48267 14.0798 4.324C13.9098 4.06333 13.6945 3.81967 13.4338 3.593C13.1845 3.355 12.8785 3.168 12.5158 3.032C12.1532 2.896 11.7168 2.82233 11.2068 2.811C10.3115 2.811 9.59185 3.00367 9.04785 3.389C8.50385 3.763 8.23185 4.31267 8.23185 5.038C8.23185 5.42333 8.33385 5.78033 8.53785 6.109C8.74185 6.42633 9.07618 6.704 9.54085 6.942C10.0168 7.16867 10.6515 7.33867 11.4448 7.452C12.8615 7.656 13.9098 8.09233 14.5898 8.761C15.2812 9.41833 15.6268 10.2797 15.6268 11.345C15.6268 11.957 15.5135 12.501 15.2868 12.977C15.0715 13.453 14.7598 13.8553 14.3518 14.184C13.9552 14.5013 13.4848 14.745 12.9408 14.915C12.4082 15.085 11.8358 15.17 11.2238 15.17ZM21.578 15C21.3967 15 21.238 14.9377 21.102 14.813C20.9774 14.677 20.915 14.5183 20.915 14.337V1.723H22.241V14.337C22.241 14.5183 22.1787 14.677 22.054 14.813C21.9294 14.9377 21.7707 15 21.578 15ZM16.886 2.93C16.7047 2.93 16.5574 2.87333 16.444 2.76C16.3307 2.64667 16.274 2.505 16.274 2.335C16.274 2.15367 16.3307 2.00633 16.444 1.893C16.5574 1.77967 16.7047 1.723 16.886 1.723H26.287C26.4684 1.723 26.6157 1.77967 26.729 1.893C26.8424 2.00633 26.899 2.15367 26.899 2.335C26.899 2.505 26.8424 2.64667 26.729 2.76C26.6157 2.87333 26.4684 2.93 26.287 2.93H16.886ZM34.1457 15.272C33.1144 15.272 32.1964 15.0737 31.3917 14.677C30.5984 14.2803 29.975 13.7307 29.5217 13.028C29.0797 12.3253 28.8587 11.5207 28.8587 10.614V2.386C28.8587 2.19333 28.921 2.03467 29.0457 1.91C29.1704 1.78533 29.329 1.723 29.5217 1.723C29.7144 1.723 29.873 1.78533 29.9977 1.91C30.1224 2.03467 30.1847 2.19333 30.1847 2.386V10.614C30.1847 11.2827 30.349 11.872 30.6777 12.382C31.0177 12.892 31.488 13.2943 32.0887 13.589C32.6894 13.8723 33.375 14.014 34.1457 14.014C34.905 14.014 35.5794 13.8723 36.1687 13.589C36.758 13.2943 37.217 12.892 37.5457 12.382C37.8857 11.872 38.0557 11.2827 38.0557 10.614V2.386C38.0557 2.19333 38.118 2.03467 38.2427 1.91C38.3674 1.78533 38.526 1.723 38.7187 1.723C38.9227 1.723 39.0814 1.78533 39.1947 1.91C39.3194 2.03467 39.3817 2.19333 39.3817 2.386V10.614C39.3817 11.5207 39.155 12.3253 38.7017 13.028C38.2597 13.7307 37.642 14.2803 36.8487 14.677C36.0667 15.0737 35.1657 15.272 34.1457 15.272ZM43.4504 15C43.2577 15 43.0991 14.9377 42.9744 14.813C42.8497 14.6883 42.7874 14.5297 42.7874 14.337V2.386C42.7874 2.19333 42.8497 2.03467 42.9744 1.91C43.0991 1.78533 43.2577 1.723 43.4504 1.723H46.5104C47.4851 1.723 48.3747 1.88733 49.1794 2.216C49.9954 2.53333 50.6981 2.99233 51.2874 3.593C51.8767 4.18233 52.3301 4.87933 52.6474 5.684C52.9761 6.48867 53.1404 7.37833 53.1404 8.353C53.1404 9.32767 52.9761 10.223 52.6474 11.039C52.3301 11.8437 51.8767 12.5463 51.2874 13.147C50.6981 13.7363 49.9954 14.1953 49.1794 14.524C48.3747 14.8413 47.4851 15 46.5104 15H43.4504ZM44.1134 13.81H46.5104C47.5531 13.81 48.4711 13.5777 49.2644 13.113C50.0691 12.637 50.6981 11.991 51.1514 11.175C51.6047 10.3477 51.8314 9.407 51.8314 8.353C51.8314 7.299 51.6047 6.364 51.1514 5.548C50.6981 4.72067 50.0691 4.07467 49.2644 3.61C48.4711 3.14533 47.5531 2.913 46.5104 2.913H44.1134V13.81ZM56.5324 15C56.3398 15 56.1811 14.9377 56.0564 14.813C55.9318 14.6883 55.8694 14.5297 55.8694 14.337V2.386C55.8694 2.19333 55.9318 2.03467 56.0564 1.91C56.1811 1.78533 56.3398 1.723 56.5324 1.723C56.7251 1.723 56.8838 1.78533 57.0084 1.91C57.1331 2.03467 57.1954 2.19333 57.1954 2.386V14.337C57.1954 14.5297 57.1331 14.6883 57.0084 14.813C56.8838 14.9377 56.7251 15 56.5324 15ZM66.7379 15.17C65.7519 15.17 64.8452 15 64.0179 14.66C63.1905 14.32 62.4709 13.844 61.8589 13.232C61.2582 12.62 60.7879 11.9003 60.4479 11.073C60.1192 10.2457 59.9549 9.339 59.9549 8.353C59.9549 7.37833 60.1192 6.47733 60.4479 5.65C60.7879 4.82267 61.2582 4.103 61.8589 3.491C62.4709 2.879 63.1905 2.403 64.0179 2.063C64.8452 1.723 65.7519 1.553 66.7379 1.553C67.7125 1.553 68.6135 1.723 69.4409 2.063C70.2682 2.403 70.9879 2.879 71.5999 3.491C72.2119 4.103 72.6822 4.82267 73.0109 5.65C73.3509 6.47733 73.5209 7.37833 73.5209 8.353C73.5209 9.339 73.3509 10.2457 73.0109 11.073C72.6822 11.9003 72.2119 12.62 71.5999 13.232C70.9879 13.844 70.2682 14.32 69.4409 14.66C68.6135 15 67.7125 15.17 66.7379 15.17ZM66.7379 13.912C67.5199 13.912 68.2452 13.776 68.9139 13.504C69.5825 13.2207 70.1605 12.8297 70.6479 12.331C71.1465 11.821 71.5319 11.2317 71.8039 10.563C72.0759 9.883 72.2119 9.14633 72.2119 8.353C72.2119 7.571 72.0759 6.84567 71.8039 6.177C71.5319 5.497 71.1465 4.90767 70.6479 4.409C70.1605 3.899 69.5825 3.508 68.9139 3.236C68.2452 2.95267 67.5199 2.811 66.7379 2.811C65.9445 2.811 65.2135 2.95267 64.5449 3.236C63.8762 3.508 63.2925 3.899 62.7939 4.409C62.3065 4.90767 61.9269 5.497 61.6549 6.177C61.3829 6.84567 61.2469 7.571 61.2469 8.353C61.2469 9.14633 61.3829 9.883 61.6549 10.563C61.9269 11.2317 62.3065 11.821 62.7939 12.331C63.2925 12.8297 63.8762 13.2207 64.5449 13.504C65.2135 13.776 65.9445 13.912 66.7379 13.912ZM5.63204 34C5.45071 34 5.29204 33.9377 5.15604 33.813C5.03138 33.677 4.96904 33.5183 4.96904 33.337V21.386C4.96904 21.1933 5.03138 21.0347 5.15604 20.91C5.29204 20.7853 5.45071 20.723 5.63204 20.723C5.90404 20.723 6.10238 20.8363 6.22704 21.063L11.956 32.453H11.378L17.005 21.063C17.141 20.8363 17.3394 20.723 17.6 20.723C17.7814 20.723 17.9344 20.7853 18.059 20.91C18.1837 21.0347 18.246 21.1933 18.246 21.386V33.337C18.246 33.5183 18.1837 33.677 18.059 33.813C17.9344 33.9377 17.7814 34 17.6 34C17.4074 34 17.243 33.9377 17.107 33.813C16.9824 33.677 16.92 33.5183 16.92 33.337V23.103L17.209 23.12L12.194 33.371C12.0694 33.5863 11.8767 33.694 11.616 33.694C11.3327 33.694 11.1287 33.558 11.004 33.286L5.95504 23.188L6.29504 23.103V33.337C6.29504 33.5183 6.22704 33.677 6.09104 33.813C5.96638 33.9377 5.81338 34 5.63204 34ZM27.7906 34.17C26.8046 34.17 25.8979 34 25.0706 33.66C24.2433 33.32 23.5236 32.844 22.9116 32.232C22.3109 31.62 21.8406 30.9003 21.5006 30.073C21.1719 29.2457 21.0076 28.339 21.0076 27.353C21.0076 26.3783 21.1719 25.4773 21.5006 24.65C21.8406 23.8227 22.3109 23.103 22.9116 22.491C23.5236 21.879 24.2433 21.403 25.0706 21.063C25.8979 20.723 26.8046 20.553 27.7906 20.553C28.7653 20.553 29.6663 20.723 30.4936 21.063C31.3209 21.403 32.0406 21.879 32.6526 22.491C33.2646 23.103 33.7349 23.8227 34.0636 24.65C34.4036 25.4773 34.5736 26.3783 34.5736 27.353C34.5736 28.339 34.4036 29.2457 34.0636 30.073C33.7349 30.9003 33.2646 31.62 32.6526 32.232C32.0406 32.844 31.3209 33.32 30.4936 33.66C29.6663 34 28.7653 34.17 27.7906 34.17ZM27.7906 32.912C28.5726 32.912 29.2979 32.776 29.9666 32.504C30.6353 32.2207 31.2133 31.8297 31.7006 31.331C32.1993 30.821 32.5846 30.2317 32.8566 29.563C33.1286 28.883 33.2646 28.1463 33.2646 27.353C33.2646 26.571 33.1286 25.8457 32.8566 25.177C32.5846 24.497 32.1993 23.9077 31.7006 23.409C31.2133 22.899 30.6353 22.508 29.9666 22.236C29.2979 21.9527 28.5726 21.811 27.7906 21.811C26.9973 21.811 26.2663 21.9527 25.5976 22.236C24.9289 22.508 24.3453 22.899 23.8466 23.409C23.3593 23.9077 22.9796 24.497 22.7076 25.177C22.4356 25.8457 22.2996 26.571 22.2996 27.353C22.2996 28.1463 22.4356 28.883 22.7076 29.563C22.9796 30.2317 23.3593 30.821 23.8466 31.331C24.3453 31.8297 24.9289 32.2207 25.5976 32.504C26.2663 32.776 26.9973 32.912 27.7906 32.912ZM43.1139 34.17C42.1279 34.17 41.2212 34 40.3939 33.66C39.5665 33.32 38.8469 32.844 38.2349 32.232C37.6342 31.62 37.1639 30.9003 36.8239 30.073C36.4952 29.2457 36.3309 28.339 36.3309 27.353C36.3309 26.3783 36.4952 25.4773 36.8239 24.65C37.1639 23.8227 37.6342 23.103 38.2349 22.491C38.8469 21.879 39.5665 21.403 40.3939 21.063C41.2212 20.723 42.1279 20.553 43.1139 20.553C44.0885 20.553 44.9895 20.723 45.8169 21.063C46.6442 21.403 47.3639 21.879 47.9759 22.491C48.5879 23.103 49.0582 23.8227 49.3869 24.65C49.7269 25.4773 49.8969 26.3783 49.8969 27.353C49.8969 28.339 49.7269 29.2457 49.3869 30.073C49.0582 30.9003 48.5879 31.62 47.9759 32.232C47.3639 32.844 46.6442 33.32 45.8169 33.66C44.9895 34 44.0885 34.17 43.1139 34.17ZM43.1139 32.912C43.8959 32.912 44.6212 32.776 45.2899 32.504C45.9585 32.2207 46.5365 31.8297 47.0239 31.331C47.5225 30.821 47.9079 30.2317 48.1799 29.563C48.4519 28.883 48.5879 28.1463 48.5879 27.353C48.5879 26.571 48.4519 25.8457 48.1799 25.177C47.9079 24.497 47.5225 23.9077 47.0239 23.409C46.5365 22.899 45.9585 22.508 45.2899 22.236C44.6212 21.9527 43.8959 21.811 43.1139 21.811C42.3205 21.811 41.5895 21.9527 40.9209 22.236C40.2522 22.508 39.6685 22.899 39.1699 23.409C38.6825 23.9077 38.3029 24.497 38.0309 25.177C37.7589 25.8457 37.6229 26.571 37.6229 27.353C37.6229 28.1463 37.7589 28.883 38.0309 29.563C38.3029 30.2317 38.6825 30.821 39.1699 31.331C39.6685 31.8297 40.2522 32.2207 40.9209 32.504C41.5895 32.776 42.3205 32.912 43.1139 32.912ZM53.2951 34C53.1025 34 52.9438 33.9377 52.8191 33.813C52.6945 33.6883 52.6321 33.5297 52.6321 33.337V21.386C52.6321 21.1933 52.6945 21.0347 52.8191 20.91C52.9438 20.7853 53.1025 20.723 53.2951 20.723C53.4991 20.723 53.6691 20.8023 53.8051 20.961L61.9311 31.637V21.386C61.9311 21.1933 61.9935 21.0347 62.1181 20.91C62.2428 20.7853 62.4015 20.723 62.5941 20.723C62.7755 20.723 62.9285 20.7853 63.0531 20.91C63.1891 21.0347 63.2571 21.1933 63.2571 21.386V33.337C63.2571 33.5297 63.1891 33.6883 63.0531 33.813C62.9285 33.9377 62.7755 34 62.5941 34C62.5035 34 62.4128 33.983 62.3221 33.949C62.2315 33.915 62.1578 33.8583 62.1011 33.779L53.9581 23.103V33.337C53.9581 33.5297 53.8901 33.6883 53.7541 33.813C53.6295 33.9377 53.4765 34 53.2951 34ZM67.3234 34C67.1308 34 66.9721 33.9377 66.8474 33.813C66.7228 33.6883 66.6604 33.5297 66.6604 33.337V21.386C66.6604 21.1933 66.7228 21.0347 66.8474 20.91C66.9721 20.7853 67.1308 20.723 67.3234 20.723H75.2964C75.4778 20.723 75.6308 20.7853 75.7555 20.91C75.8914 21.0233 75.9594 21.1763 75.9594 21.369C75.9594 21.539 75.8914 21.6863 75.7555 21.811C75.6308 21.9357 75.4778 21.998 75.2964 21.998H67.9864V26.69H73.3074C73.5001 26.69 73.6588 26.7523 73.7835 26.877C73.9081 27.0017 73.9704 27.1547 73.9704 27.336C73.9704 27.5173 73.9081 27.6703 73.7835 27.795C73.6588 27.9197 73.5001 27.982 73.3074 27.982H67.9864V32.725H75.2964C75.4778 32.725 75.6308 32.7873 75.7555 32.912C75.8914 33.0367 75.9594 33.184 75.9594 33.354C75.9594 33.5467 75.8914 33.7053 75.7555 33.83C75.6308 33.9433 75.4778 34 75.2964 34H67.3234Z" fill="#242424"/>
</svg>
